<svg width="21" height="20" viewBox="0 0 21 20" fill="none" xmlns="http://www.w3.org/2000/svg">
<path d="M15.35 17.6443L12.1807 14.45L13.225 13.4057L15.35 15.5307L19.6 11.2808L20.6443 12.35L15.35 17.6443ZM0.5 19.0385V2.30775C0.5 1.80258 0.675 1.375 1.025 1.025C1.375 0.675 1.80258 0.5 2.30775 0.5H17.6923C18.1974 0.5 18.625 0.675 18.975 1.025C19.325 1.375 19.5 1.80258 19.5 2.30775V9.25H18V2.30775C18 2.23075 17.9679 2.16025 17.9038 2.09625C17.8398 2.03208 17.7693 2 17.6923 2H2.30775C2.23075 2 2.16025 2.03208 2.09625 2.09625C2.03208 2.16025 2 2.23075 2 2.30775V15.3848L3.4 14H10.25V15.5H4.0385L0.5 19.0385Z" fill="#1C1B1F"/>
</svg>
