<svg width="20" height="20" viewBox="0 0 20 20" fill="none" xmlns="http://www.w3.org/2000/svg">
<path d="M11.4819 19.5C9.81744 19.5 8.39953 18.9163 7.22819 17.749C6.05686 16.5817 5.47119 15.1653 5.47119 13.5V12.9537C4.12119 12.7782 2.99203 12.1763 2.08369 11.148C1.17536 10.1198 0.721191 8.90383 0.721191 7.5V1.75H3.72119V0.75H5.22119V4.25H3.72119V3.25H2.22119V7.5C2.22119 8.6 2.61286 9.54167 3.39619 10.325C4.17953 11.1083 5.12119 11.5 6.22119 11.5C7.32119 11.5 8.26286 11.1083 9.04619 10.325C9.82953 9.54167 10.2212 8.6 10.2212 7.5V3.25H8.72119V4.25H7.22119V0.75H8.72119V1.75H11.7212V7.5C11.7212 8.90383 11.267 10.1198 10.3587 11.148C9.45036 12.1763 8.32119 12.7782 6.97119 12.9537V13.5C6.97119 14.75 7.40961 15.8125 8.28644 16.6875C9.16327 17.5625 10.228 18 11.4807 18C12.7307 18 13.7932 17.5625 14.6682 16.6875C15.5432 15.8125 15.9807 14.75 15.9807 13.5V11.8828C15.455 11.7276 15.0224 11.4253 14.6827 10.976C14.3429 10.5267 14.1729 10.0154 14.1729 9.44225C14.1729 8.73192 14.4218 8.12808 14.9194 7.63075C15.4169 7.13342 16.0211 6.88475 16.7319 6.88475C17.4426 6.88475 18.0464 7.13342 18.5432 7.63075C19.04 8.12808 19.2884 8.73192 19.2884 9.44225C19.2884 10.0154 19.1185 10.5267 18.7787 10.976C18.439 11.4253 18.0064 11.7276 17.4807 11.8828V13.5C17.4807 15.1653 16.897 16.5817 15.7297 17.749C14.5624 18.9163 13.1464 19.5 11.4819 19.5ZM16.7307 10.5C17.0269 10.5 17.2772 10.3978 17.4817 10.1933C17.6862 9.98875 17.7884 9.73842 17.7884 9.44225C17.7884 9.14608 17.6862 8.89583 17.4817 8.6915C17.2772 8.487 17.0269 8.38475 16.7307 8.38475C16.4345 8.38475 16.1842 8.487 15.9797 8.6915C15.7752 8.89583 15.6729 9.14608 15.6729 9.44225C15.6729 9.73842 15.7752 9.98875 15.9797 10.1933C16.1842 10.3978 16.4345 10.5 16.7307 10.5Z" fill="#1C1B1F"/>
</svg>
